# xmcd
#
# Track frame offsets:
#	150
#	19217
#	48201
#	70479
#	87315
#	106314
#	128789
#	153455
#	176331
#	191796
#	209732
#	226022
#	241973
#	256889
#	274840
#	290164
#	305894
#	323544
#	336415
#	354469
#
# Disc length: 4817 seconds
#
# Revision: 0
# Processed by: cddbd v1.5.2PL0 Copyright (c) Steve Scherf et al.
# Submitted via: EasyCDDAExtractor 15.2.5.1
#
DISCID=3012cf14
DTITLE=Prince - Music History
DYEAR=1900
DGENRE=Rhythmic Soul
TTITLE0=Dimonds and pearls
TTITLE1=Purple rain
TTITLE2=Nothing compares
TTITLE3=Peach
TTITLE4=The most beautiful girl in the world
TTITLE5=Sexy m.f.
TTITLE6=The greatest romance ever sold
TTITLE7=Pink cashmere
TTITLE8=Betcha by golly wow!
TTITLE9=7
TTITLE10=If I was your girlfriend
TTITLE11=I love U, but I don't trust U anymore
TTITLE12=Controversy
TTITLE13=La, la, la, means I love you
TTITLE14=Do me baby
TTITLE15=Silly game
TTITLE16=Let it go
TTITLE17=I wanna be youe lover
TTITLE18=Cream
TTITLE19=Tangerine
EXTD=
EXTT0=
EXTT1=
EXTT2=
EXTT3=
EXTT4=
EXTT5=
EXTT6=
EXTT7=
EXTT8=
EXTT9=
EXTT10=
EXTT11=
EXTT12=
EXTT13=
EXTT14=
EXTT15=
EXTT16=
EXTT17=
EXTT18=
EXTT19=
PLAYORDER=
